<svg width="16" height="16" viewBox="0 0 16 16" fill="none" xmlns="http://www.w3.org/2000/svg"><path d="M6.9502 15.15L0.450195 8.64998C0.366862 8.54998 0.304529 8.44565 0.263196 8.33699C0.221196 8.22899 0.200195 8.11665 0.200195 7.99999C0.200195 7.86665 0.221196 7.74565 0.263196 7.63699C0.304529 7.52899 0.366862 7.43332 0.450195 7.34999L6.9752 0.824985C7.14186 0.658318 7.35453 0.570652 7.6132 0.561985C7.8712 0.553985 8.09186 0.649985 8.2752 0.849985C8.47519 1.03332 8.5752 1.24999 8.5752 1.49999C8.5752 1.74999 8.48353 1.97499 8.3002 2.17499L3.4002 7.04999H14.5002C14.7502 7.04999 14.9669 7.14165 15.1502 7.32499C15.3335 7.50832 15.4252 7.73332 15.4252 7.99999C15.4252 8.24999 15.3335 8.46665 15.1502 8.64998C14.9669 8.83332 14.7502 8.92498 14.5002 8.92498H3.4002L8.3002 13.825C8.48353 14.0083 8.5752 14.2293 8.5752 14.488C8.5752 14.746 8.48353 14.9667 8.3002 15.15C8.11686 15.3333 7.89586 15.425 7.6372 15.425C7.3792 15.425 7.1502 15.3333 6.9502 15.15Z" fill="#FFFFFF"></path></svg>